<?xml version="1.0" encoding="UTF-8" standalone="no"?>
<svg
   xmlns:dc="http://purl.org/dc/elements/1.1/"
   xmlns:cc="http://creativecommons.org/ns#"
   xmlns:rdf="http://www.w3.org/1999/02/22-rdf-syntax-ns#"
   xmlns:svg="http://www.w3.org/2000/svg"
   xmlns="http://www.w3.org/2000/svg"
   xmlns:sodipodi="http://sodipodi.sourceforge.net/DTD/sodipodi-0.dtd"
   xmlns:inkscape="http://www.inkscape.org/namespaces/inkscape"
   height="189.30mm"
   viewBox="0.0 0.0 873.55 189.30"
   width="873.55mm"
   version="1.1"
   id="svg34"
   sodipodi:docname="Console2.svg"
   inkscape:version="1.0.2 (e86c870879, 2021-01-15)">
  <defs
     id="defs38" />
  <sodipodi:namedview
     pagecolor="#ffffff"
     bordercolor="#666666"
     borderopacity="1"
     objecttolerance="10"
     gridtolerance="10"
     guidetolerance="10"
     inkscape:pageopacity="0"
     inkscape:pageshadow="2"
     inkscape:window-width="1089"
     inkscape:window-height="724"
     id="namedview36"
     showgrid="false"
     inkscape:zoom="0.76416047"
     inkscape:cx="1704.1816"
     inkscape:cy="251.29862"
     inkscape:window-x="0"
     inkscape:window-y="18"
     inkscape:window-maximized="0"
     inkscape:current-layer="layer1" />
  <!--
Console - Console with slanted panel

Created with Boxes.py (https://festi.info/boxes.py)
Creation date: 2021-03-25 11:03:38
Command line (remove spaces between dashes): boxes Console - -FingerJoint_angle=90.0 - -FingerJoint_style=rectangular - -FingerJoint_surroundingspaces=0.5 - -FingerJoint_edge_width=1.0 - -FingerJoint_finger=2.0 - -FingerJoint_play=0.0 - -FingerJoint_space=2.0 - -FingerJoint_width=1.0 - -Stackable_angle=60 - -Stackable_height=2.0 - -Stackable_holedistance=1.0 - -Stackable_width=4.0 - -x=150 - -y=160 - -h=100 - -outside=0 - -front_height=50 - -angle=15 - -thickness=4.0 - -format=svg - -tabs=0.0 - -debug=0 - -reference=100 - -burn=0.1
Url: http://www.festi.info/Console?FingerJoint_angle=90.0&FingerJoint_style=rectangular&FingerJoint_surroundingspaces=0.5&FingerJoint_edge_width=1.0&FingerJoint_finger=2.0&FingerJoint_play=0.0&FingerJoint_space=2.0&FingerJoint_width=1.0&Stackable_angle=60&Stackable_height=2.0&Stackable_holedistance=1.0&Stackable_width=4.0&x=150&y=160&h=100&outside=0&front_height=50&angle=15&thickness=4.0&format=svg&tabs=0.0&debug=0&reference=100&burn=0.1&render=1
SettingsUrl: http://www.festi.info/Console?FingerJoint_angle=90.0&FingerJoint_style=rectangular&FingerJoint_surroundingspaces=0.5&FingerJoint_edge_width=1.0&FingerJoint_finger=2.0&FingerJoint_play=0.0&FingerJoint_space=2.0&FingerJoint_width=1.0&Stackable_angle=60&Stackable_height=2.0&Stackable_holedistance=1.0&Stackable_width=4.0&x=150&y=160&h=100&outside=0&front_height=50&angle=15&thickness=4.0&format=svg&tabs=0.0&debug=0&reference=100&burn=0.1
-->
  <title
     id="title10">Console</title>
  <metadata
     id="metadata12">
    <rdf:RDF>
      <cc:Work>
        <dc:title>Console</dc:title>
        <dc:date>2021-03-25 11:03:38</dc:date>
        <dc:source>http://www.festi.info/Console?FingerJoint_angle=90.0&amp;FingerJoint_style=rectangular&amp;FingerJoint_surroundingspaces=0.5&amp;FingerJoint_edge_width=1.0&amp;FingerJoint_finger=2.0&amp;FingerJoint_play=0.0&amp;FingerJoint_space=2.0&amp;FingerJoint_width=1.0&amp;Stackable_angle=60&amp;Stackable_height=2.0&amp;Stackable_holedistance=1.0&amp;Stackable_width=4.0&amp;x=150&amp;y=160&amp;h=100&amp;outside=0&amp;front_height=50&amp;angle=15&amp;thickness=4.0&amp;format=svg&amp;tabs=0.0&amp;debug=0&amp;reference=100&amp;burn=0.1&amp;render=1</dc:source>
        <dc:description>Console with slanted panel

Created with Boxes.py (https://festi.info/boxes.py)
Command line: boxes Console --FingerJoint_angle=90.0 --FingerJoint_style=rectangular --FingerJoint_surroundingspaces=0.5 --FingerJoint_edge_width=1.0 --FingerJoint_finger=2.0 --FingerJoint_play=0.0 --FingerJoint_space=2.0 --FingerJoint_width=1.0 --Stackable_angle=60 --Stackable_height=2.0 --Stackable_holedistance=1.0 --Stackable_width=4.0 --x=150 --y=160 --h=100 --outside=0 --front_height=50 --angle=15 --thickness=4.0 --format=svg --tabs=0.0 --debug=0 --reference=100 --burn=0.1
Url: http://www.festi.info/Console?FingerJoint_angle=90.0&amp;FingerJoint_style=rectangular&amp;FingerJoint_surroundingspaces=0.5&amp;FingerJoint_edge_width=1.0&amp;FingerJoint_finger=2.0&amp;FingerJoint_play=0.0&amp;FingerJoint_space=2.0&amp;FingerJoint_width=1.0&amp;Stackable_angle=60&amp;Stackable_height=2.0&amp;Stackable_holedistance=1.0&amp;Stackable_width=4.0&amp;x=150&amp;y=160&amp;h=100&amp;outside=0&amp;front_height=50&amp;angle=15&amp;thickness=4.0&amp;format=svg&amp;tabs=0.0&amp;debug=0&amp;reference=100&amp;burn=0.1&amp;render=1
SettingsUrl: http://www.festi.info/Console?FingerJoint_angle=90.0&amp;FingerJoint_style=rectangular&amp;FingerJoint_surroundingspaces=0.5&amp;FingerJoint_edge_width=1.0&amp;FingerJoint_finger=2.0&amp;FingerJoint_play=0.0&amp;FingerJoint_space=2.0&amp;FingerJoint_width=1.0&amp;Stackable_angle=60&amp;Stackable_height=2.0&amp;Stackable_holedistance=1.0&amp;Stackable_width=4.0&amp;x=150&amp;y=160&amp;h=100&amp;outside=0&amp;front_height=50&amp;angle=15&amp;thickness=4.0&amp;format=svg&amp;tabs=0.0&amp;debug=0&amp;reference=100&amp;burn=0.1
</dc:description>
        <dc:format>image/svg+xml</dc:format>
        <dc:type
           rdf:resource="http://purl.org/dc/dcmitype/StillImage" />
      </cc:Work>
    </rdf:RDF>
  </metadata>
  <g
     id="p-0"
     style="fill:none;stroke-linecap:round;stroke-linejoin:round">
    <path
       d="m 10.1,179.3 h 100 v -10 h -100 z"
       stroke="#000000"
       stroke-width="0.2"
       id="path14" />
    <text
       alignment-baseline="hanging"
       font-size="10px"
       style="font-style:normal;font-weight:normal;font-family:sans-serif;fill:#000000"
       text-anchor="middle"
       id="text16"
       x="60.099998"
       y="177.76656">100mm</text>
  </g>
  <g
     inkscape:groupmode="layer"
     id="layer1"
     inkscape:label="Layer 1">
    <rect
       style="fill:#0000ff;fill-rule:evenodd;stroke-width:0.264583;image-rendering:auto"
       id="rect45"
       width="149.57762"
       height="42.859791"
       x="18.523138"
       y="116.25977" />
    <rect
       style="fill:#0000ff;fill-rule:evenodd;stroke-width:0.264583"
       id="rect47"
       width="152.65302"
       height="141.24409"
       x="360.16116"
       y="18.86342" />
  </g>
  <g
     id="p-1"
     style="fill:none;stroke-linecap:round;stroke-linejoin:round;">
    <path
       d="M 14.100 163.100 H 18.000 C 18.100 163.100 18.000 163.000 18.000 163.100 V 167.000 C 18.000 167.055 18.045 167.100 18.100 167.100 H 26.100 C 26.155 167.100 26.200 167.055 26.200 167.000 V 163.100 C 26.200 163.000 26.100 163.100 26.200 163.100 H 34.000 C 34.100 163.100 34.000 163.000 34.000 163.100 V 167.000 C 34.000 167.055 34.045 167.100 34.100 167.100 H 42.100 C 42.155 167.100 42.200 167.055 42.200 167.000 V 163.100 C 42.200 163.000 42.100 163.100 42.200 163.100 H 50.000 C 50.100 163.100 50.000 163.000 50.000 163.100 V 167.000 C 50.000 167.055 50.045 167.100 50.100 167.100 H 58.100 C 58.155 167.100 58.200 167.055 58.200 167.000 V 163.100 C 58.200 163.000 58.100 163.100 58.200 163.100 H 66.000 C 66.100 163.100 66.000 163.000 66.000 163.100 V 167.000 C 66.000 167.055 66.045 167.100 66.100 167.100 H 74.100 C 74.155 167.100 74.200 167.055 74.200 167.000 V 163.100 C 74.200 163.000 74.100 163.100 74.200 163.100 H 82.000 C 82.100 163.100 82.000 163.000 82.000 163.100 V 167.000 C 82.000 167.055 82.045 167.100 82.100 167.100 H 90.100 C 90.155 167.100 90.200 167.055 90.200 167.000 V 163.100 C 90.200 163.000 90.100 163.100 90.200 163.100 H 98.000 C 98.100 163.100 98.000 163.000 98.000 163.100 V 167.000 C 98.000 167.055 98.045 167.100 98.100 167.100 H 106.100 C 106.155 167.100 106.200 167.055 106.200 167.000 V 163.100 C 106.200 163.000 106.100 163.100 106.200 163.100 H 114.000 C 114.100 163.100 114.000 163.000 114.000 163.100 V 167.000 C 114.000 167.055 114.045 167.100 114.100 167.100 H 122.100 C 122.155 167.100 122.200 167.055 122.200 167.000 V 163.100 C 122.200 163.000 122.100 163.100 122.200 163.100 H 130.000 C 130.100 163.100 130.000 163.000 130.000 163.100 V 167.000 C 130.000 167.055 130.045 167.100 130.100 167.100 H 138.100 C 138.155 167.100 138.200 167.055 138.200 167.000 V 163.100 C 138.200 163.000 138.100 163.100 138.200 163.100 H 146.000 C 146.100 163.100 146.000 163.000 146.000 163.100 V 167.000 C 146.000 167.055 146.045 167.100 146.100 167.100 H 154.100 C 154.155 167.100 154.200 167.055 154.200 167.000 V 163.100 C 154.200 163.000 154.100 163.100 154.200 163.100 H 162.000 C 162.100 163.100 162.000 163.000 162.000 163.100 V 167.000 C 162.000 167.055 162.045 167.100 162.100 167.100 H 170.100 C 170.155 167.100 170.200 167.055 170.200 167.000 V 163.100 C 170.200 163.000 170.100 163.100 170.200 163.100 H 174.100 C 174.155 163.100 174.200 163.055 174.200 163.000 V 158.100 C 174.200 158.000 174.100 158.100 174.200 158.100 H 178.100 C 178.155 158.100 178.200 158.055 178.200 158.000 V 150.000 C 178.200 149.945 178.155 149.900 178.100 149.900 H 174.200 C 174.100 149.900 174.200 150.000 174.200 149.900 V 142.100 C 174.200 142.000 174.100 142.100 174.200 142.100 H 178.100 C 178.155 142.100 178.200 142.055 178.200 142.000 V 134.000 C 178.200 133.945 178.155 133.900 178.100 133.900 H 174.200 C 174.100 133.900 174.200 134.000 174.200 133.900 V 126.100 C 174.200 126.000 174.100 126.100 174.200 126.100 H 178.100 C 178.155 126.100 178.200 126.055 178.200 126.000 V 118.000 C 178.200 117.945 178.155 117.900 178.100 117.900 H 174.200 C 174.100 117.900 174.200 118.000 174.200 117.900 V 113.000 C 174.200 112.955 174.170 112.915 174.126 112.903 L 167.633 111.164 C 167.536 111.138 167.607 111.260 167.633 111.164 L 168.642 107.396 C 168.657 107.343 168.625 107.288 168.572 107.274 L 160.844 105.203 C 160.791 105.189 160.736 105.221 160.722 105.274 L 159.712 109.041 C 159.686 109.138 159.809 109.067 159.712 109.041 L 152.178 107.022 C 152.081 106.997 152.152 107.119 152.178 107.022 L 153.187 103.255 C 153.202 103.202 153.170 103.147 153.117 103.133 L 145.389 101.062 C 145.336 101.048 145.281 101.080 145.267 101.133 L 144.257 104.900 C 144.232 104.997 144.354 104.926 144.257 104.900 L 136.723 102.881 C 136.627 102.856 136.697 102.978 136.723 102.881 L 137.733 99.114 C 137.747 99.061 137.715 99.006 137.662 98.992 L 129.934 96.921 C 129.881 96.907 129.826 96.939 129.812 96.992 L 128.803 100.759 C 128.777 100.856 128.899 100.785 128.803 100.759 L 121.268 98.740 C 121.172 98.714 121.243 98.837 121.268 98.740 L 122.278 94.973 C 122.292 94.920 122.260 94.865 122.207 94.851 L 114.480 92.780 C 114.426 92.766 114.371 92.798 114.357 92.851 L 113.348 96.618 C 113.322 96.715 113.444 96.644 113.348 96.618 L 105.814 94.599 C 105.717 94.573 105.788 94.696 105.814 94.599 L 106.823 90.832 C 106.837 90.779 106.806 90.724 106.752 90.710 L 99.025 88.639 C 98.972 88.625 98.917 88.656 98.902 88.710 L 97.893 92.477 C 97.867 92.573 97.990 92.503 97.893 92.477 L 90.359 90.458 C 90.262 90.432 90.333 90.555 90.359 90.458 L 91.368 86.691 C 91.382 86.638 91.351 86.583 91.297 86.568 L 83.570 84.498 C 83.517 84.484 83.462 84.515 83.448 84.569 L 82.438 88.336 C 82.412 88.432 82.535 88.362 82.438 88.336 L 74.904 86.317 C 74.807 86.291 74.878 86.414 74.904 86.317 L 75.913 82.550 C 75.928 82.497 75.896 82.442 75.843 82.427 L 68.115 80.357 C 68.062 80.343 68.007 80.374 67.993 80.428 L 66.983 84.195 C 66.957 84.291 67.080 84.221 66.983 84.195 L 59.449 82.176 C 59.353 82.150 59.423 82.272 59.449 82.176 L 60.459 78.409 C 60.473 78.355 60.441 78.301 60.388 78.286 L 52.660 76.216 C 52.607 76.201 52.552 76.233 52.538 76.286 L 51.529 80.054 C 51.503 80.150 51.625 80.079 51.529 80.054 L 43.994 78.035 C 43.898 78.009 43.968 78.131 43.994 78.035 L 45.004 74.268 C 45.018 74.214 44.986 74.159 44.933 74.145 L 37.206 72.075 C 37.152 72.060 37.097 72.092 37.083 72.145 L 36.074 75.912 C 36.048 76.009 36.170 75.938 36.074 75.912 L 28.540 73.894 C 28.443 73.868 28.514 73.990 28.540 73.894 L 29.549 70.127 C 29.563 70.073 29.532 70.018 29.478 70.004 L 21.751 67.934 C 21.697 67.919 21.643 67.951 21.628 68.004 L 20.619 71.771 C 20.593 71.868 20.716 71.797 20.619 71.771 L 14.126 70.032 C 14.106 70.026 14.085 70.027 14.066 70.034 C 14.047 70.041 14.030 70.054 14.018 70.071 C 14.006 70.088 14.000 70.108 14.000 70.128 V 72.464 C 14.000 72.564 14.100 72.464 14.000 72.464 H 10.100 C 10.045 72.464 10.000 72.509 10.000 72.564 V 80.564 C 10.000 80.619 10.045 80.664 10.100 80.664 H 14.000 C 14.100 80.664 14.000 80.564 14.000 80.664 V 88.464 C 14.000 88.564 14.100 88.464 14.000 88.464 H 10.100 C 10.045 88.464 10.000 88.509 10.000 88.564 V 96.564 C 10.000 96.619 10.045 96.664 10.100 96.664 H 14.000 C 14.100 96.664 14.000 96.564 14.000 96.664 V 104.464 C 14.000 104.564 14.100 104.464 14.000 104.464 H 10.100 C 10.045 104.464 10.000 104.509 10.000 104.564 V 112.564 C 10.000 112.619 10.045 112.664 10.100 112.664 H 14.000 C 14.100 112.664 14.000 112.564 14.000 112.664 V 120.464 C 14.000 120.564 14.100 120.464 14.000 120.464 H 10.100 C 10.045 120.464 10.000 120.509 10.000 120.564 V 128.564 C 10.000 128.619 10.045 128.664 10.100 128.664 H 14.000 C 14.100 128.664 14.000 128.564 14.000 128.664 V 136.464 C 14.000 136.564 14.100 136.464 14.000 136.464 H 10.100 C 10.045 136.464 10.000 136.509 10.000 136.564 V 144.564 C 10.000 144.619 10.045 144.664 10.100 144.664 H 14.000 C 14.100 144.664 14.000 144.564 14.000 144.664 V 152.464 C 14.000 152.564 14.100 152.464 14.000 152.464 H 10.100 C 10.045 152.464 10.000 152.509 10.000 152.564 V 160.564 C 10.000 160.619 10.045 160.664 10.100 160.664 H 14.000 C 14.100 160.664 14.000 160.564 14.000 160.664 V 163.000 C 14.000 163.055 14.045 163.100 14.100 163.100 Z"
       stroke="rgb(0,0,0)"
       stroke-width="0.20"
       id="path19" />
  </g>
  <g
     id="p-2"
     style="fill:none;stroke-linecap:round;stroke-linejoin:round;">
    <path
       d="M 184.300 163.100 H 188.200 C 188.300 163.100 188.200 163.000 188.200 163.100 V 167.000 C 188.200 167.055 188.245 167.100 188.300 167.100 H 196.300 C 196.355 167.100 196.400 167.055 196.400 167.000 V 163.100 C 196.400 163.000 196.300 163.100 196.400 163.100 H 204.200 C 204.300 163.100 204.200 163.000 204.200 163.100 V 167.000 C 204.200 167.055 204.245 167.100 204.300 167.100 H 212.300 C 212.355 167.100 212.400 167.055 212.400 167.000 V 163.100 C 212.400 163.000 212.300 163.100 212.400 163.100 H 220.200 C 220.300 163.100 220.200 163.000 220.200 163.100 V 167.000 C 220.200 167.055 220.245 167.100 220.300 167.100 H 228.300 C 228.355 167.100 228.400 167.055 228.400 167.000 V 163.100 C 228.400 163.000 228.300 163.100 228.400 163.100 H 236.200 C 236.300 163.100 236.200 163.000 236.200 163.100 V 167.000 C 236.200 167.055 236.245 167.100 236.300 167.100 H 244.300 C 244.355 167.100 244.400 167.055 244.400 167.000 V 163.100 C 244.400 163.000 244.300 163.100 244.400 163.100 H 252.200 C 252.300 163.100 252.200 163.000 252.200 163.100 V 167.000 C 252.200 167.055 252.245 167.100 252.300 167.100 H 260.300 C 260.355 167.100 260.400 167.055 260.400 167.000 V 163.100 C 260.400 163.000 260.300 163.100 260.400 163.100 H 268.200 C 268.300 163.100 268.200 163.000 268.200 163.100 V 167.000 C 268.200 167.055 268.245 167.100 268.300 167.100 H 276.300 C 276.355 167.100 276.400 167.055 276.400 167.000 V 163.100 C 276.400 163.000 276.300 163.100 276.400 163.100 H 284.200 C 284.300 163.100 284.200 163.000 284.200 163.100 V 167.000 C 284.200 167.055 284.245 167.100 284.300 167.100 H 292.300 C 292.355 167.100 292.400 167.055 292.400 167.000 V 163.100 C 292.400 163.000 292.300 163.100 292.400 163.100 H 300.200 C 300.300 163.100 300.200 163.000 300.200 163.100 V 167.000 C 300.200 167.055 300.245 167.100 300.300 167.100 H 308.300 C 308.355 167.100 308.400 167.055 308.400 167.000 V 163.100 C 308.400 163.000 308.300 163.100 308.400 163.100 H 316.200 C 316.300 163.100 316.200 163.000 316.200 163.100 V 167.000 C 316.200 167.055 316.245 167.100 316.300 167.100 H 324.300 C 324.355 167.100 324.400 167.055 324.400 167.000 V 163.100 C 324.400 163.000 324.300 163.100 324.400 163.100 H 332.200 C 332.300 163.100 332.200 163.000 332.200 163.100 V 167.000 C 332.200 167.055 332.245 167.100 332.300 167.100 H 340.300 C 340.355 167.100 340.400 167.055 340.400 167.000 V 163.100 C 340.400 163.000 340.300 163.100 340.400 163.100 H 344.300 C 344.355 163.100 344.400 163.055 344.400 163.000 V 158.100 C 344.400 158.000 344.300 158.100 344.400 158.100 H 348.300 C 348.355 158.100 348.400 158.055 348.400 158.000 V 150.000 C 348.400 149.945 348.355 149.900 348.300 149.900 H 344.400 C 344.300 149.900 344.400 150.000 344.400 149.900 V 142.100 C 344.400 142.000 344.300 142.100 344.400 142.100 H 348.300 C 348.355 142.100 348.400 142.055 348.400 142.000 V 134.000 C 348.400 133.945 348.355 133.900 348.300 133.900 H 344.400 C 344.300 133.900 344.400 134.000 344.400 133.900 V 126.100 C 344.400 126.000 344.300 126.100 344.400 126.100 H 348.300 C 348.355 126.100 348.400 126.055 348.400 126.000 V 118.000 C 348.400 117.945 348.355 117.900 348.300 117.900 H 344.400 C 344.300 117.900 344.400 118.000 344.400 117.900 V 113.000 C 344.400 112.955 344.370 112.915 344.326 112.903 L 337.833 111.164 C 337.736 111.138 337.807 111.260 337.833 111.164 L 338.842 107.396 C 338.857 107.343 338.825 107.288 338.772 107.274 L 331.044 105.203 C 330.991 105.189 330.936 105.221 330.922 105.274 L 329.912 109.041 C 329.886 109.138 330.009 109.067 329.912 109.041 L 322.378 107.022 C 322.281 106.997 322.352 107.119 322.378 107.022 L 323.387 103.255 C 323.402 103.202 323.370 103.147 323.317 103.133 L 315.589 101.062 C 315.536 101.048 315.481 101.080 315.467 101.133 L 314.457 104.900 C 314.432 104.997 314.554 104.926 314.457 104.900 L 306.923 102.881 C 306.827 102.856 306.897 102.978 306.923 102.881 L 307.933 99.114 C 307.947 99.061 307.915 99.006 307.862 98.992 L 300.134 96.921 C 300.081 96.907 300.026 96.939 300.012 96.992 L 299.003 100.759 C 298.977 100.856 299.099 100.785 299.003 100.759 L 291.468 98.740 C 291.372 98.714 291.443 98.837 291.468 98.740 L 292.478 94.973 C 292.492 94.920 292.460 94.865 292.407 94.851 L 284.680 92.780 C 284.626 92.766 284.571 92.798 284.557 92.851 L 283.548 96.618 C 283.522 96.715 283.644 96.644 283.548 96.618 L 276.014 94.599 C 275.917 94.573 275.988 94.696 276.014 94.599 L 277.023 90.832 C 277.037 90.779 277.006 90.724 276.952 90.710 L 269.225 88.639 C 269.172 88.625 269.117 88.656 269.102 88.710 L 268.093 92.477 C 268.067 92.573 268.190 92.503 268.093 92.477 L 260.559 90.458 C 260.462 90.432 260.533 90.555 260.559 90.458 L 261.568 86.691 C 261.582 86.638 261.551 86.583 261.497 86.568 L 253.770 84.498 C 253.717 84.484 253.662 84.515 253.648 84.569 L 252.638 88.336 C 252.612 88.432 252.735 88.362 252.638 88.336 L 245.104 86.317 C 245.007 86.291 245.078 86.414 245.104 86.317 L 246.113 82.550 C 246.128 82.497 246.096 82.442 246.043 82.427 L 238.315 80.357 C 238.262 80.343 238.207 80.374 238.193 80.428 L 237.183 84.195 C 237.157 84.291 237.280 84.221 237.183 84.195 L 229.649 82.176 C 229.553 82.150 229.623 82.272 229.649 82.176 L 230.659 78.409 C 230.673 78.355 230.641 78.301 230.588 78.286 L 222.860 76.216 C 222.807 76.201 222.752 76.233 222.738 76.286 L 221.729 80.054 C 221.703 80.150 221.825 80.079 221.729 80.054 L 214.194 78.035 C 214.098 78.009 214.168 78.131 214.194 78.035 L 215.204 74.268 C 215.218 74.214 215.186 74.159 215.133 74.145 L 207.406 72.075 C 207.352 72.060 207.297 72.092 207.283 72.145 L 206.274 75.912 C 206.248 76.009 206.370 75.938 206.274 75.912 L 198.740 73.894 C 198.643 73.868 198.714 73.990 198.740 73.894 L 199.749 70.127 C 199.763 70.073 199.732 70.018 199.678 70.004 L 191.951 67.934 C 191.897 67.919 191.843 67.951 191.828 68.004 L 190.819 71.771 C 190.793 71.868 190.916 71.797 190.819 71.771 L 184.326 70.032 C 184.306 70.026 184.285 70.027 184.266 70.034 C 184.247 70.041 184.230 70.054 184.218 70.071 C 184.206 70.088 184.200 70.108 184.200 70.128 V 72.464 C 184.200 72.564 184.300 72.464 184.200 72.464 H 180.300 C 180.245 72.464 180.200 72.509 180.200 72.564 V 80.564 C 180.200 80.619 180.245 80.664 180.300 80.664 H 184.200 C 184.300 80.664 184.200 80.564 184.200 80.664 V 88.464 C 184.200 88.564 184.300 88.464 184.200 88.464 H 180.300 C 180.245 88.464 180.200 88.509 180.200 88.564 V 96.564 C 180.200 96.619 180.245 96.664 180.300 96.664 H 184.200 C 184.300 96.664 184.200 96.564 184.200 96.664 V 104.464 C 184.200 104.564 184.300 104.464 184.200 104.464 H 180.300 C 180.245 104.464 180.200 104.509 180.200 104.564 V 112.564 C 180.200 112.619 180.245 112.664 180.300 112.664 H 184.200 C 184.300 112.664 184.200 112.564 184.200 112.664 V 120.464 C 184.200 120.564 184.300 120.464 184.200 120.464 H 180.300 C 180.245 120.464 180.200 120.509 180.200 120.564 V 128.564 C 180.200 128.619 180.245 128.664 180.300 128.664 H 184.200 C 184.300 128.664 184.200 128.564 184.200 128.664 V 136.464 C 184.200 136.564 184.300 136.464 184.200 136.464 H 180.300 C 180.245 136.464 180.200 136.509 180.200 136.564 V 144.564 C 180.200 144.619 180.245 144.664 180.300 144.664 H 184.200 C 184.300 144.664 184.200 144.564 184.200 144.664 V 152.464 C 184.200 152.564 184.300 152.464 184.200 152.464 H 180.300 C 180.245 152.464 180.200 152.509 180.200 152.564 V 160.564 C 180.200 160.619 180.245 160.664 180.300 160.664 H 184.200 C 184.300 160.664 184.200 160.564 184.200 160.664 V 163.000 C 184.200 163.055 184.245 163.100 184.300 163.100 Z"
       stroke="rgb(0,0,0)"
       stroke-width="0.20"
       id="path22" />
  </g>
  <g
     id="p-3"
     style="fill:none;stroke-linecap:round;stroke-linejoin:round;">
    <path
       d="M 355.600 168.200 H 359.600 C 359.655 168.200 359.700 168.155 359.700 168.100 V 164.200 C 359.700 164.100 359.600 164.200 359.700 164.200 H 367.500 C 367.600 164.200 367.500 164.100 367.500 164.200 V 168.100 C 367.500 168.155 367.545 168.200 367.600 168.200 H 375.600 C 375.655 168.200 375.700 168.155 375.700 168.100 V 164.200 C 375.700 164.100 375.600 164.200 375.700 164.200 H 383.500 C 383.600 164.200 383.500 164.100 383.500 164.200 V 168.100 C 383.500 168.155 383.545 168.200 383.600 168.200 H 391.600 C 391.655 168.200 391.700 168.155 391.700 168.100 V 164.200 C 391.700 164.100 391.600 164.200 391.700 164.200 H 399.500 C 399.600 164.200 399.500 164.100 399.500 164.200 V 168.100 C 399.500 168.155 399.545 168.200 399.600 168.200 H 407.600 C 407.655 168.200 407.700 168.155 407.700 168.100 V 164.200 C 407.700 164.100 407.600 164.200 407.700 164.200 H 415.500 C 415.600 164.200 415.500 164.100 415.500 164.200 V 168.100 C 415.500 168.155 415.545 168.200 415.600 168.200 H 423.600 C 423.655 168.200 423.700 168.155 423.700 168.100 V 164.200 C 423.700 164.100 423.600 164.200 423.700 164.200 H 431.500 C 431.600 164.200 431.500 164.100 431.500 164.200 V 168.100 C 431.500 168.155 431.545 168.200 431.600 168.200 H 439.600 C 439.655 168.200 439.700 168.155 439.700 168.100 V 164.200 C 439.700 164.100 439.600 164.200 439.700 164.200 H 447.500 C 447.600 164.200 447.500 164.100 447.500 164.200 V 168.100 C 447.500 168.155 447.545 168.200 447.600 168.200 H 455.600 C 455.655 168.200 455.700 168.155 455.700 168.100 V 164.200 C 455.700 164.100 455.600 164.200 455.700 164.200 H 463.500 C 463.600 164.200 463.500 164.100 463.500 164.200 V 168.100 C 463.500 168.155 463.545 168.200 463.600 168.200 H 471.600 C 471.655 168.200 471.700 168.155 471.700 168.100 V 164.200 C 471.700 164.100 471.600 164.200 471.700 164.200 H 479.500 C 479.600 164.200 479.500 164.100 479.500 164.200 V 168.100 C 479.500 168.155 479.545 168.200 479.600 168.200 H 487.600 C 487.655 168.200 487.700 168.155 487.700 168.100 V 164.200 C 487.700 164.100 487.600 164.200 487.700 164.200 H 495.500 C 495.600 164.200 495.500 164.100 495.500 164.200 V 168.100 C 495.500 168.155 495.545 168.200 495.600 168.200 H 503.600 C 503.655 168.200 503.700 168.155 503.700 168.100 V 164.200 C 503.700 164.100 503.600 164.200 503.700 164.200 H 511.500 C 511.600 164.200 511.500 164.100 511.500 164.200 V 168.100 C 511.500 168.155 511.545 168.200 511.600 168.200 H 515.600 H 519.600 C 519.655 168.200 519.700 168.155 519.700 168.100 V 164.100 V 157.100 C 519.700 157.045 519.655 157.000 519.600 157.000 H 515.700 C 515.600 157.000 515.700 157.100 515.700 157.000 V 149.200 C 515.700 149.100 515.600 149.200 515.700 149.200 H 519.600 C 519.655 149.200 519.700 149.155 519.700 149.100 V 141.100 C 519.700 141.045 519.655 141.000 519.600 141.000 H 515.700 C 515.600 141.000 515.700 141.100 515.700 141.000 V 133.200 C 515.700 133.100 515.600 133.200 515.700 133.200 H 519.600 C 519.655 133.200 519.700 133.155 519.700 133.100 V 125.100 C 519.700 125.045 519.655 125.000 519.600 125.000 H 515.700 C 515.600 125.000 515.700 125.100 515.700 125.000 V 117.200 C 515.700 117.100 515.600 117.200 515.700 117.200 H 519.600 C 519.655 117.200 519.700 117.155 519.700 117.100 V 109.100 C 519.700 109.045 519.655 109.000 519.600 109.000 H 515.700 C 515.600 109.000 515.700 109.100 515.700 109.000 V 101.200 C 515.700 101.100 515.600 101.200 515.700 101.200 H 519.600 C 519.655 101.200 519.700 101.155 519.700 101.100 V 93.100 C 519.700 93.045 519.655 93.000 519.600 93.000 H 515.700 C 515.600 93.000 515.700 93.100 515.700 93.000 V 85.200 C 515.700 85.100 515.600 85.200 515.700 85.200 H 519.600 C 519.655 85.200 519.700 85.155 519.700 85.100 V 77.100 C 519.700 77.045 519.655 77.000 519.600 77.000 H 515.700 C 515.600 77.000 515.700 77.100 515.700 77.000 V 69.200 C 515.700 69.100 515.600 69.200 515.700 69.200 H 519.600 C 519.655 69.200 519.700 69.155 519.700 69.100 V 61.100 C 519.700 61.045 519.655 61.000 519.600 61.000 H 515.700 C 515.600 61.000 515.700 61.100 515.700 61.000 V 53.200 C 515.700 53.100 515.600 53.200 515.700 53.200 H 519.600 C 519.655 53.200 519.700 53.155 519.700 53.100 V 45.100 C 519.700 45.045 519.655 45.000 519.600 45.000 H 515.700 C 515.600 45.000 515.700 45.100 515.700 45.000 V 37.200 C 515.700 37.100 515.600 37.200 515.700 37.200 H 519.600 C 519.655 37.200 519.700 37.155 519.700 37.100 V 29.100 C 519.700 29.045 519.655 29.000 519.600 29.000 H 515.700 C 515.600 29.000 515.700 29.100 515.700 29.000 V 21.200 C 515.700 21.100 515.600 21.200 515.700 21.200 H 519.600 C 519.655 21.200 519.700 21.155 519.700 21.100 V 14.100 V 10.100 C 519.700 10.045 519.655 10.000 519.600 10.000 H 515.600 H 511.600 C 511.545 10.000 511.500 10.045 511.500 10.100 V 14.000 C 511.500 14.100 511.600 14.000 511.500 14.000 H 503.700 C 503.600 14.000 503.700 14.100 503.700 14.000 V 10.100 C 503.700 10.045 503.655 10.000 503.600 10.000 H 495.600 C 495.545 10.000 495.500 10.045 495.500 10.100 V 14.000 C 495.500 14.100 495.600 14.000 495.500 14.000 H 487.700 C 487.600 14.000 487.700 14.100 487.700 14.000 V 10.100 C 487.700 10.045 487.655 10.000 487.600 10.000 H 479.600 C 479.545 10.000 479.500 10.045 479.500 10.100 V 14.000 C 479.500 14.100 479.600 14.000 479.500 14.000 H 471.700 C 471.600 14.000 471.700 14.100 471.700 14.000 V 10.100 C 471.700 10.045 471.655 10.000 471.600 10.000 H 463.600 C 463.545 10.000 463.500 10.045 463.500 10.100 V 14.000 C 463.500 14.100 463.600 14.000 463.500 14.000 H 455.700 C 455.600 14.000 455.700 14.100 455.700 14.000 V 10.100 C 455.700 10.045 455.655 10.000 455.600 10.000 H 447.600 C 447.545 10.000 447.500 10.045 447.500 10.100 V 14.000 C 447.500 14.100 447.600 14.000 447.500 14.000 H 439.700 C 439.600 14.000 439.700 14.100 439.700 14.000 V 10.100 C 439.700 10.045 439.655 10.000 439.600 10.000 H 431.600 C 431.545 10.000 431.500 10.045 431.500 10.100 V 14.000 C 431.500 14.100 431.600 14.000 431.500 14.000 H 423.700 C 423.600 14.000 423.700 14.100 423.700 14.000 V 10.100 C 423.700 10.045 423.655 10.000 423.600 10.000 H 415.600 C 415.545 10.000 415.500 10.045 415.500 10.100 V 14.000 C 415.500 14.100 415.600 14.000 415.500 14.000 H 407.700 C 407.600 14.000 407.700 14.100 407.700 14.000 V 10.100 C 407.700 10.045 407.655 10.000 407.600 10.000 H 399.600 C 399.545 10.000 399.500 10.045 399.500 10.100 V 14.000 C 399.500 14.100 399.600 14.000 399.500 14.000 H 391.700 C 391.600 14.000 391.700 14.100 391.700 14.000 V 10.100 C 391.700 10.045 391.655 10.000 391.600 10.000 H 383.600 C 383.545 10.000 383.500 10.045 383.500 10.100 V 14.000 C 383.500 14.100 383.600 14.000 383.500 14.000 H 375.700 C 375.600 14.000 375.700 14.100 375.700 14.000 V 10.100 C 375.700 10.045 375.655 10.000 375.600 10.000 H 367.600 C 367.545 10.000 367.500 10.045 367.500 10.100 V 14.000 C 367.500 14.100 367.600 14.000 367.500 14.000 H 359.700 C 359.600 14.000 359.700 14.100 359.700 14.000 V 10.100 C 359.700 10.045 359.655 10.000 359.600 10.000 H 355.600 H 351.600 C 351.545 10.000 351.500 10.045 351.500 10.100 V 14.100 V 21.100 C 351.500 21.155 351.545 21.200 351.600 21.200 H 355.500 C 355.600 21.200 355.500 21.100 355.500 21.200 V 29.000 C 355.500 29.100 355.600 29.000 355.500 29.000 H 351.600 C 351.545 29.000 351.500 29.045 351.500 29.100 V 37.100 C 351.500 37.155 351.545 37.200 351.600 37.200 H 355.500 C 355.600 37.200 355.500 37.100 355.500 37.200 V 45.000 C 355.500 45.100 355.600 45.000 355.500 45.000 H 351.600 C 351.545 45.000 351.500 45.045 351.500 45.100 V 53.100 C 351.500 53.155 351.545 53.200 351.600 53.200 H 355.500 C 355.600 53.200 355.500 53.100 355.500 53.200 V 61.000 C 355.500 61.100 355.600 61.000 355.500 61.000 H 351.600 C 351.545 61.000 351.500 61.045 351.500 61.100 V 69.100 C 351.500 69.155 351.545 69.200 351.600 69.200 H 355.500 C 355.600 69.200 355.500 69.100 355.500 69.200 V 77.000 C 355.500 77.100 355.600 77.000 355.500 77.000 H 351.600 C 351.545 77.000 351.500 77.045 351.500 77.100 V 85.100 C 351.500 85.155 351.545 85.200 351.600 85.200 H 355.500 C 355.600 85.200 355.500 85.100 355.500 85.200 V 93.000 C 355.500 93.100 355.600 93.000 355.500 93.000 H 351.600 C 351.545 93.000 351.500 93.045 351.500 93.100 V 101.100 C 351.500 101.155 351.545 101.200 351.600 101.200 H 355.500 C 355.600 101.200 355.500 101.100 355.500 101.200 V 109.000 C 355.500 109.100 355.600 109.000 355.500 109.000 H 351.600 C 351.545 109.000 351.500 109.045 351.500 109.100 V 117.100 C 351.500 117.155 351.545 117.200 351.600 117.200 H 355.500 C 355.600 117.200 355.500 117.100 355.500 117.200 V 125.000 C 355.500 125.100 355.600 125.000 355.500 125.000 H 351.600 C 351.545 125.000 351.500 125.045 351.500 125.100 V 133.100 C 351.500 133.155 351.545 133.200 351.600 133.200 H 355.500 C 355.600 133.200 355.500 133.100 355.500 133.200 V 141.000 C 355.500 141.100 355.600 141.000 355.500 141.000 H 351.600 C 351.545 141.000 351.500 141.045 351.500 141.100 V 149.100 C 351.500 149.155 351.545 149.200 351.600 149.200 H 355.500 C 355.600 149.200 355.500 149.100 355.500 149.200 V 157.000 C 355.500 157.100 355.600 157.000 355.500 157.000 H 351.600 C 351.545 157.000 351.500 157.045 351.500 157.100 V 164.100 V 168.100 C 351.500 168.155 351.545 168.200 351.600 168.200 H 355.600 Z"
       stroke="rgb(0,0,0)"
       stroke-width="0.20"
       id="path25" />
    <path
       d="M 528.000 168.200 H 533.000 C 533.055 168.200 533.100 168.155 533.100 168.100 V 164.200 C 533.100 164.100 533.000 164.200 533.100 164.200 H 540.900 C 541.000 164.200 540.900 164.100 540.900 164.200 V 168.100 C 540.900 168.155 540.945 168.200 541.000 168.200 H 549.000 C 549.055 168.200 549.100 168.155 549.100 168.100 V 164.200 C 549.100 164.100 549.000 164.200 549.100 164.200 H 556.900 C 557.000 164.200 556.900 164.100 556.900 164.200 V 168.100 C 556.900 168.155 556.945 168.200 557.000 168.200 H 565.000 C 565.055 168.200 565.100 168.155 565.100 168.100 V 164.200 C 565.100 164.100 565.000 164.200 565.100 164.200 H 572.900 C 573.000 164.200 572.900 164.100 572.900 164.200 V 168.100 C 572.900 168.155 572.945 168.200 573.000 168.200 H 578.000 H 577.206 C 577.261 168.200 577.306 168.155 577.306 168.100 V 164.100 V 157.200 C 577.306 157.100 577.206 157.200 577.306 157.200 H 581.069 C 581.125 157.200 581.169 157.155 581.169 157.100 V 149.100 C 581.169 149.045 581.125 149.000 581.069 149.000 H 577.306 C 577.206 149.000 577.306 149.100 577.306 149.000 V 141.200 C 577.306 141.100 577.206 141.200 577.306 141.200 H 581.069 C 581.125 141.200 581.169 141.155 581.169 141.100 V 133.100 C 581.169 133.045 581.125 133.000 581.069 133.000 H 577.306 C 577.206 133.000 577.306 133.100 577.306 133.000 V 125.200 C 577.306 125.100 577.206 125.200 577.306 125.200 H 581.069 C 581.125 125.200 581.169 125.155 581.169 125.100 V 117.100 C 581.169 117.045 581.125 117.000 581.069 117.000 H 577.306 C 577.206 117.000 577.306 117.100 577.306 117.000 V 109.200 C 577.306 109.100 577.206 109.200 577.306 109.200 H 581.069 C 581.125 109.200 581.169 109.155 581.169 109.100 V 101.100 C 581.169 101.045 581.125 101.000 581.069 101.000 H 577.306 C 577.206 101.000 577.306 101.100 577.306 101.000 V 93.200 C 577.306 93.100 577.206 93.200 577.306 93.200 H 581.069 C 581.125 93.200 581.169 93.155 581.169 93.100 V 85.100 C 581.169 85.045 581.125 85.000 581.069 85.000 H 577.306 C 577.206 85.000 577.306 85.100 577.306 85.000 V 77.200 C 577.306 77.100 577.206 77.200 577.306 77.200 H 581.069 C 581.125 77.200 581.169 77.155 581.169 77.100 V 69.100 C 581.169 69.045 581.125 69.000 581.069 69.000 H 577.306 C 577.206 69.000 577.306 69.100 577.306 69.000 V 61.200 C 577.306 61.100 577.206 61.200 577.306 61.200 H 581.069 C 581.125 61.200 581.169 61.155 581.169 61.100 V 53.100 C 581.169 53.045 581.125 53.000 581.069 53.000 H 577.306 C 577.206 53.000 577.306 53.100 577.306 53.000 V 45.200 C 577.306 45.100 577.206 45.200 577.306 45.200 H 581.069 C 581.125 45.200 581.169 45.155 581.169 45.100 V 37.100 C 581.169 37.045 581.125 37.000 581.069 37.000 H 577.306 C 577.206 37.000 577.306 37.100 577.306 37.000 V 29.200 C 577.306 29.100 577.206 29.200 577.306 29.200 H 581.069 C 581.125 29.200 581.169 29.155 581.169 29.100 V 21.100 C 581.169 21.045 581.125 21.000 581.069 21.000 H 577.306 C 577.206 21.000 577.306 21.100 577.306 21.000 V 14.100 V 10.100 C 577.306 10.045 577.261 10.000 577.206 10.000 H 578.000 H 573.000 C 572.945 10.000 572.900 10.045 572.900 10.100 V 14.000 C 572.900 14.100 573.000 14.000 572.900 14.000 H 565.100 C 565.000 14.000 565.100 14.100 565.100 14.000 V 10.100 C 565.100 10.045 565.055 10.000 565.000 10.000 H 557.000 C 556.945 10.000 556.900 10.045 556.900 10.100 V 14.000 C 556.900 14.100 557.000 14.000 556.900 14.000 H 549.100 C 549.000 14.000 549.100 14.100 549.100 14.000 V 10.100 C 549.100 10.045 549.055 10.000 549.000 10.000 H 541.000 C 540.945 10.000 540.900 10.045 540.900 10.100 V 14.000 C 540.900 14.100 541.000 14.000 540.900 14.000 H 533.100 C 533.000 14.000 533.100 14.100 533.100 14.000 V 10.100 C 533.100 10.045 533.055 10.000 533.000 10.000 H 528.000 C 527.945 10.000 527.900 10.045 527.900 10.100 V 14.100 V 21.000 C 527.900 21.100 528.000 21.000 527.900 21.000 H 524.000 C 523.945 21.000 523.900 21.045 523.900 21.100 V 29.100 C 523.900 29.155 523.945 29.200 524.000 29.200 H 527.900 C 528.000 29.200 527.900 29.100 527.900 29.200 V 37.000 C 527.900 37.100 528.000 37.000 527.900 37.000 H 524.000 C 523.945 37.000 523.900 37.045 523.900 37.100 V 45.100 C 523.900 45.155 523.945 45.200 524.000 45.200 H 527.900 C 528.000 45.200 527.900 45.100 527.900 45.200 V 53.000 C 527.900 53.100 528.000 53.000 527.900 53.000 H 524.000 C 523.945 53.000 523.900 53.045 523.900 53.100 V 61.100 C 523.900 61.155 523.945 61.200 524.000 61.200 H 527.900 C 528.000 61.200 527.900 61.100 527.900 61.200 V 69.000 C 527.900 69.100 528.000 69.000 527.900 69.000 H 524.000 C 523.945 69.000 523.900 69.045 523.900 69.100 V 77.100 C 523.900 77.155 523.945 77.200 524.000 77.200 H 527.900 C 528.000 77.200 527.900 77.100 527.900 77.200 V 85.000 C 527.900 85.100 528.000 85.000 527.900 85.000 H 524.000 C 523.945 85.000 523.900 85.045 523.900 85.100 V 93.100 C 523.900 93.155 523.945 93.200 524.000 93.200 H 527.900 C 528.000 93.200 527.900 93.100 527.900 93.200 V 101.000 C 527.900 101.100 528.000 101.000 527.900 101.000 H 524.000 C 523.945 101.000 523.900 101.045 523.900 101.100 V 109.100 C 523.900 109.155 523.945 109.200 524.000 109.200 H 527.900 C 528.000 109.200 527.900 109.100 527.900 109.200 V 117.000 C 527.900 117.100 528.000 117.000 527.900 117.000 H 524.000 C 523.945 117.000 523.900 117.045 523.900 117.100 V 125.100 C 523.900 125.155 523.945 125.200 524.000 125.200 H 527.900 C 528.000 125.200 527.900 125.100 527.900 125.200 V 133.000 C 527.900 133.100 528.000 133.000 527.900 133.000 H 524.000 C 523.945 133.000 523.900 133.045 523.900 133.100 V 141.100 C 523.900 141.155 523.945 141.200 524.000 141.200 H 527.900 C 528.000 141.200 527.900 141.100 527.900 141.200 V 149.000 C 527.900 149.100 528.000 149.000 527.900 149.000 H 524.000 C 523.945 149.000 523.900 149.045 523.900 149.100 V 157.100 C 523.900 157.155 523.945 157.200 524.000 157.200 H 527.900 C 528.000 157.200 527.900 157.100 527.900 157.200 V 164.100 V 168.100 C 527.900 168.155 527.945 168.200 528.000 168.200 Z"
       stroke="rgb(0,0,0)"
       stroke-width="0.20"
       id="path27" />
    <path
       d="M 589.469 168.200 H 596.291 C 596.347 168.200 596.391 168.155 596.391 168.100 V 164.200 C 596.391 164.100 596.291 164.200 596.391 164.200 H 604.191 C 604.291 164.200 604.191 164.100 604.191 164.200 V 168.100 C 604.191 168.155 604.236 168.200 604.291 168.200 H 612.291 C 612.347 168.200 612.391 168.155 612.391 168.100 V 164.200 C 612.391 164.100 612.291 164.200 612.391 164.200 H 620.191 C 620.291 164.200 620.191 164.100 620.191 164.200 V 168.100 C 620.191 168.155 620.236 168.200 620.291 168.200 H 628.291 C 628.347 168.200 628.391 168.155 628.391 168.100 V 164.200 C 628.391 164.100 628.291 164.200 628.391 164.200 H 636.191 C 636.291 164.200 636.191 164.100 636.191 164.200 V 168.100 C 636.191 168.155 636.236 168.200 636.291 168.200 H 644.291 C 644.347 168.200 644.391 168.155 644.391 168.100 V 164.200 C 644.391 164.100 644.291 164.200 644.391 164.200 H 652.191 C 652.291 164.200 652.191 164.100 652.191 164.200 V 168.100 C 652.191 168.155 652.236 168.200 652.291 168.200 H 660.291 C 660.347 168.200 660.391 168.155 660.391 168.100 V 164.200 C 660.391 164.100 660.291 164.200 660.391 164.200 H 668.191 C 668.291 164.200 668.191 164.100 668.191 164.200 V 168.100 C 668.191 168.155 668.236 168.200 668.291 168.200 H 676.291 C 676.347 168.200 676.391 168.155 676.391 168.100 V 164.200 C 676.391 164.100 676.291 164.200 676.391 164.200 H 684.191 C 684.291 164.200 684.191 164.100 684.191 164.200 V 168.100 C 684.191 168.155 684.236 168.200 684.291 168.200 H 692.291 C 692.347 168.200 692.391 168.155 692.391 168.100 V 164.200 C 692.391 164.100 692.291 164.200 692.391 164.200 H 700.191 C 700.291 164.200 700.191 164.100 700.191 164.200 V 168.100 C 700.191 168.155 700.236 168.200 700.291 168.200 H 708.291 C 708.347 168.200 708.391 168.155 708.391 168.100 V 164.200 C 708.391 164.100 708.291 164.200 708.391 164.200 H 716.191 C 716.291 164.200 716.191 164.100 716.191 164.200 V 168.100 C 716.191 168.155 716.236 168.200 716.291 168.200 H 724.291 C 724.347 168.200 724.391 168.155 724.391 168.100 V 164.200 C 724.391 164.100 724.291 164.200 724.391 164.200 H 732.191 C 732.291 164.200 732.191 164.100 732.191 164.200 V 168.100 C 732.191 168.155 732.236 168.200 732.291 168.200 H 740.291 C 740.347 168.200 740.391 168.155 740.391 168.100 V 164.200 C 740.391 164.100 740.291 164.200 740.391 164.200 H 748.191 C 748.291 164.200 748.191 164.100 748.191 164.200 V 168.100 C 748.191 168.155 748.236 168.200 748.291 168.200 H 755.113 H 759.113 C 759.169 168.200 759.213 168.155 759.213 168.100 V 164.100 V 157.100 C 759.213 157.045 759.169 157.000 759.113 157.000 H 755.213 C 755.113 157.000 755.213 157.100 755.213 157.000 V 149.200 C 755.213 149.100 755.113 149.200 755.213 149.200 H 759.113 C 759.169 149.200 759.213 149.155 759.213 149.100 V 141.100 C 759.213 141.045 759.169 141.000 759.113 141.000 H 755.213 C 755.113 141.000 755.213 141.100 755.213 141.000 V 133.200 C 755.213 133.100 755.113 133.200 755.213 133.200 H 759.113 C 759.169 133.200 759.213 133.155 759.213 133.100 V 125.100 C 759.213 125.045 759.169 125.000 759.113 125.000 H 755.213 C 755.113 125.000 755.213 125.100 755.213 125.000 V 117.200 C 755.213 117.100 755.113 117.200 755.213 117.200 H 759.113 C 759.169 117.200 759.213 117.155 759.213 117.100 V 109.100 C 759.213 109.045 759.169 109.000 759.113 109.000 H 755.213 C 755.113 109.000 755.213 109.100 755.213 109.000 V 101.200 C 755.213 101.100 755.113 101.200 755.213 101.200 H 759.113 C 759.169 101.200 759.213 101.155 759.213 101.100 V 93.100 C 759.213 93.045 759.169 93.000 759.113 93.000 H 755.213 C 755.113 93.000 755.213 93.100 755.213 93.000 V 85.200 C 755.213 85.100 755.113 85.200 755.213 85.200 H 759.113 C 759.169 85.200 759.213 85.155 759.213 85.100 V 77.100 C 759.213 77.045 759.169 77.000 759.113 77.000 H 755.213 C 755.113 77.000 755.213 77.100 755.213 77.000 V 69.200 C 755.213 69.100 755.113 69.200 755.213 69.200 H 759.113 C 759.169 69.200 759.213 69.155 759.213 69.100 V 61.100 C 759.213 61.045 759.169 61.000 759.113 61.000 H 755.213 C 755.113 61.000 755.213 61.100 755.213 61.000 V 53.200 C 755.213 53.100 755.113 53.200 755.213 53.200 H 759.113 C 759.169 53.200 759.213 53.155 759.213 53.100 V 45.100 C 759.213 45.045 759.169 45.000 759.113 45.000 H 755.213 C 755.113 45.000 755.213 45.100 755.213 45.000 V 37.200 C 755.213 37.100 755.113 37.200 755.213 37.200 H 759.113 C 759.169 37.200 759.213 37.155 759.213 37.100 V 29.100 C 759.213 29.045 759.169 29.000 759.113 29.000 H 755.213 C 755.113 29.000 755.213 29.100 755.213 29.000 V 21.200 C 755.213 21.100 755.113 21.200 755.213 21.200 H 759.113 C 759.169 21.200 759.213 21.155 759.213 21.100 V 14.100 V 10.100 C 759.213 10.045 759.169 10.000 759.113 10.000 H 755.113 H 748.291 C 748.236 10.000 748.191 10.045 748.191 10.100 V 14.000 C 748.191 14.100 748.291 14.000 748.191 14.000 H 740.391 C 740.291 14.000 740.391 14.100 740.391 14.000 V 10.100 C 740.391 10.045 740.347 10.000 740.291 10.000 H 732.291 C 732.236 10.000 732.191 10.045 732.191 10.100 V 14.000 C 732.191 14.100 732.291 14.000 732.191 14.000 H 724.391 C 724.291 14.000 724.391 14.100 724.391 14.000 V 10.100 C 724.391 10.045 724.347 10.000 724.291 10.000 H 716.291 C 716.236 10.000 716.191 10.045 716.191 10.100 V 14.000 C 716.191 14.100 716.291 14.000 716.191 14.000 H 708.391 C 708.291 14.000 708.391 14.100 708.391 14.000 V 10.100 C 708.391 10.045 708.347 10.000 708.291 10.000 H 700.291 C 700.236 10.000 700.191 10.045 700.191 10.100 V 14.000 C 700.191 14.100 700.291 14.000 700.191 14.000 H 692.391 C 692.291 14.000 692.391 14.100 692.391 14.000 V 10.100 C 692.391 10.045 692.347 10.000 692.291 10.000 H 684.291 C 684.236 10.000 684.191 10.045 684.191 10.100 V 14.000 C 684.191 14.100 684.291 14.000 684.191 14.000 H 676.391 C 676.291 14.000 676.391 14.100 676.391 14.000 V 10.100 C 676.391 10.045 676.347 10.000 676.291 10.000 H 668.291 C 668.236 10.000 668.191 10.045 668.191 10.100 V 14.000 C 668.191 14.100 668.291 14.000 668.191 14.000 H 660.391 C 660.291 14.000 660.391 14.100 660.391 14.000 V 10.100 C 660.391 10.045 660.347 10.000 660.291 10.000 H 652.291 C 652.236 10.000 652.191 10.045 652.191 10.100 V 14.000 C 652.191 14.100 652.291 14.000 652.191 14.000 H 644.391 C 644.291 14.000 644.391 14.100 644.391 14.000 V 10.100 C 644.391 10.045 644.347 10.000 644.291 10.000 H 636.291 C 636.236 10.000 636.191 10.045 636.191 10.100 V 14.000 C 636.191 14.100 636.291 14.000 636.191 14.000 H 628.391 C 628.291 14.000 628.391 14.100 628.391 14.000 V 10.100 C 628.391 10.045 628.347 10.000 628.291 10.000 H 620.291 C 620.236 10.000 620.191 10.045 620.191 10.100 V 14.000 C 620.191 14.100 620.291 14.000 620.191 14.000 H 612.391 C 612.291 14.000 612.391 14.100 612.391 14.000 V 10.100 C 612.391 10.045 612.347 10.000 612.291 10.000 H 604.291 C 604.236 10.000 604.191 10.045 604.191 10.100 V 14.000 C 604.191 14.100 604.291 14.000 604.191 14.000 H 596.391 C 596.291 14.000 596.391 14.100 596.391 14.000 V 10.100 C 596.391 10.045 596.347 10.000 596.291 10.000 H 589.469 H 586.400 C 586.345 10.000 586.300 10.045 586.300 10.100 V 14.100 V 21.100 C 586.300 21.155 586.345 21.200 586.400 21.200 H 590.164 C 590.264 21.200 590.164 21.100 590.164 21.200 V 29.000 C 590.164 29.100 590.264 29.000 590.164 29.000 H 586.400 C 586.345 29.000 586.300 29.045 586.300 29.100 V 37.100 C 586.300 37.155 586.345 37.200 586.400 37.200 H 590.164 C 590.264 37.200 590.164 37.100 590.164 37.200 V 45.000 C 590.164 45.100 590.264 45.000 590.164 45.000 H 586.400 C 586.345 45.000 586.300 45.045 586.300 45.100 V 53.100 C 586.300 53.155 586.345 53.200 586.400 53.200 H 590.164 C 590.264 53.200 590.164 53.100 590.164 53.200 V 61.000 C 590.164 61.100 590.264 61.000 590.164 61.000 H 586.400 C 586.345 61.000 586.300 61.045 586.300 61.100 V 69.100 C 586.300 69.155 586.345 69.200 586.400 69.200 H 590.164 C 590.264 69.200 590.164 69.100 590.164 69.200 V 77.000 C 590.164 77.100 590.264 77.000 590.164 77.000 H 586.400 C 586.345 77.000 586.300 77.045 586.300 77.100 V 85.100 C 586.300 85.155 586.345 85.200 586.400 85.200 H 590.164 C 590.264 85.200 590.164 85.100 590.164 85.200 V 93.000 C 590.164 93.100 590.264 93.000 590.164 93.000 H 586.400 C 586.345 93.000 586.300 93.045 586.300 93.100 V 101.100 C 586.300 101.155 586.345 101.200 586.400 101.200 H 590.164 C 590.264 101.200 590.164 101.100 590.164 101.200 V 109.000 C 590.164 109.100 590.264 109.000 590.164 109.000 H 586.400 C 586.345 109.000 586.300 109.045 586.300 109.100 V 117.100 C 586.300 117.155 586.345 117.200 586.400 117.200 H 590.164 C 590.264 117.200 590.164 117.100 590.164 117.200 V 125.000 C 590.164 125.100 590.264 125.000 590.164 125.000 H 586.400 C 586.345 125.000 586.300 125.045 586.300 125.100 V 133.100 C 586.300 133.155 586.345 133.200 586.400 133.200 H 590.164 C 590.264 133.200 590.164 133.100 590.164 133.200 V 141.000 C 590.164 141.100 590.264 141.000 590.164 141.000 H 586.400 C 586.345 141.000 586.300 141.045 586.300 141.100 V 149.100 C 586.300 149.155 586.345 149.200 586.400 149.200 H 590.164 C 590.264 149.200 590.164 149.100 590.164 149.200 V 157.000 C 590.164 157.100 590.264 157.000 590.164 157.000 H 586.400 C 586.345 157.000 586.300 157.045 586.300 157.100 V 164.100 V 168.100 C 586.300 168.155 586.345 168.200 586.400 168.200 H 589.469 Z"
       stroke="rgb(0,0,0)"
       stroke-width="0.20"
       id="path29" />
    <path
       d="M 766.583 168.200 H 769.019 C 769.074 168.200 769.119 168.155 769.119 168.100 V 164.200 C 769.119 164.100 769.019 164.200 769.119 164.200 H 776.919 C 777.019 164.200 776.919 164.100 776.919 164.200 V 168.100 C 776.919 168.155 776.964 168.200 777.019 168.200 H 785.019 C 785.074 168.200 785.119 168.155 785.119 168.100 V 164.200 C 785.119 164.100 785.019 164.200 785.119 164.200 H 792.919 C 793.019 164.200 792.919 164.100 792.919 164.200 V 168.100 C 792.919 168.155 792.964 168.200 793.019 168.200 H 801.019 C 801.074 168.200 801.119 168.155 801.119 168.100 V 164.200 C 801.119 164.100 801.019 164.200 801.119 164.200 H 808.919 C 809.019 164.200 808.919 164.100 808.919 164.200 V 168.100 C 808.919 168.155 808.964 168.200 809.019 168.200 H 817.019 C 817.074 168.200 817.119 168.155 817.119 168.100 V 164.200 C 817.119 164.100 817.019 164.200 817.119 164.200 H 824.919 C 825.019 164.200 824.919 164.100 824.919 164.200 V 168.100 C 824.919 168.155 824.964 168.200 825.019 168.200 H 833.019 C 833.074 168.200 833.119 168.155 833.119 168.100 V 164.200 C 833.119 164.100 833.019 164.200 833.119 164.200 H 840.919 C 841.019 164.200 840.919 164.100 840.919 164.200 V 168.100 C 840.919 168.155 840.964 168.200 841.019 168.200 H 849.019 C 849.074 168.200 849.119 168.155 849.119 168.100 V 164.200 C 849.119 164.100 849.019 164.200 849.119 164.200 H 856.919 C 857.019 164.200 856.919 164.100 856.919 164.200 V 168.100 C 856.919 168.155 856.964 168.200 857.019 168.200 H 859.455 C 859.510 168.200 859.555 168.155 859.555 168.100 V 164.100 V 157.200 C 859.555 157.100 859.455 157.200 859.555 157.200 H 863.455 C 863.510 157.200 863.555 157.155 863.555 157.100 V 149.100 C 863.555 149.045 863.510 149.000 863.455 149.000 H 859.555 C 859.455 149.000 859.555 149.100 859.555 149.000 V 141.200 C 859.555 141.100 859.455 141.200 859.555 141.200 H 863.455 C 863.510 141.200 863.555 141.155 863.555 141.100 V 133.100 C 863.555 133.045 863.510 133.000 863.455 133.000 H 859.555 C 859.455 133.000 859.555 133.100 859.555 133.000 V 125.200 C 859.555 125.100 859.455 125.200 859.555 125.200 H 863.455 C 863.510 125.200 863.555 125.155 863.555 125.100 V 117.100 C 863.555 117.045 863.510 117.000 863.455 117.000 H 859.555 C 859.455 117.000 859.555 117.100 859.555 117.000 V 109.200 C 859.555 109.100 859.455 109.200 859.555 109.200 H 863.455 C 863.510 109.200 863.555 109.155 863.555 109.100 V 101.100 C 863.555 101.045 863.510 101.000 863.455 101.000 H 859.555 C 859.455 101.000 859.555 101.100 859.555 101.000 V 93.200 C 859.555 93.100 859.455 93.200 859.555 93.200 H 863.455 C 863.510 93.200 863.555 93.155 863.555 93.100 V 85.100 C 863.555 85.045 863.510 85.000 863.455 85.000 H 859.555 C 859.455 85.000 859.555 85.100 859.555 85.000 V 77.200 C 859.555 77.100 859.455 77.200 859.555 77.200 H 863.455 C 863.510 77.200 863.555 77.155 863.555 77.100 V 69.100 C 863.555 69.045 863.510 69.000 863.455 69.000 H 859.555 C 859.455 69.000 859.555 69.100 859.555 69.000 V 61.200 C 859.555 61.100 859.455 61.200 859.555 61.200 H 863.455 C 863.510 61.200 863.555 61.155 863.555 61.100 V 53.100 C 863.555 53.045 863.510 53.000 863.455 53.000 H 859.555 C 859.455 53.000 859.555 53.100 859.555 53.000 V 45.200 C 859.555 45.100 859.455 45.200 859.555 45.200 H 863.455 C 863.510 45.200 863.555 45.155 863.555 45.100 V 37.100 C 863.555 37.045 863.510 37.000 863.455 37.000 H 859.555 C 859.455 37.000 859.555 37.100 859.555 37.000 V 29.200 C 859.555 29.100 859.455 29.200 859.555 29.200 H 863.455 C 863.510 29.200 863.555 29.155 863.555 29.100 V 21.100 C 863.555 21.045 863.510 21.000 863.455 21.000 H 859.555 C 859.455 21.000 859.555 21.100 859.555 21.000 V 14.100 V 10.100 C 859.555 10.045 859.510 10.000 859.455 10.000 H 857.019 C 856.964 10.000 856.919 10.045 856.919 10.100 V 14.000 C 856.919 14.100 857.019 14.000 856.919 14.000 H 849.119 C 849.019 14.000 849.119 14.100 849.119 14.000 V 10.100 C 849.119 10.045 849.074 10.000 849.019 10.000 H 841.019 C 840.964 10.000 840.919 10.045 840.919 10.100 V 14.000 C 840.919 14.100 841.019 14.000 840.919 14.000 H 833.119 C 833.019 14.000 833.119 14.100 833.119 14.000 V 10.100 C 833.119 10.045 833.074 10.000 833.019 10.000 H 825.019 C 824.964 10.000 824.919 10.045 824.919 10.100 V 14.000 C 824.919 14.100 825.019 14.000 824.919 14.000 H 817.119 C 817.019 14.000 817.119 14.100 817.119 14.000 V 10.100 C 817.119 10.045 817.074 10.000 817.019 10.000 H 809.019 C 808.964 10.000 808.919 10.045 808.919 10.100 V 14.000 C 808.919 14.100 809.019 14.000 808.919 14.000 H 801.119 C 801.019 14.000 801.119 14.100 801.119 14.000 V 10.100 C 801.119 10.045 801.074 10.000 801.019 10.000 H 793.019 C 792.964 10.000 792.919 10.045 792.919 10.100 V 14.000 C 792.919 14.100 793.019 14.000 792.919 14.000 H 785.119 C 785.019 14.000 785.119 14.100 785.119 14.000 V 10.100 C 785.119 10.045 785.074 10.000 785.019 10.000 H 777.019 C 776.964 10.000 776.919 10.045 776.919 10.100 V 14.000 C 776.919 14.100 777.019 14.000 776.919 14.000 H 769.119 C 769.019 14.000 769.119 14.100 769.119 14.000 V 10.100 C 769.119 10.045 769.074 10.000 769.019 10.000 H 766.583 C 766.528 10.000 766.483 10.045 766.483 10.100 V 14.100 V 21.000 C 766.483 21.100 766.583 21.000 766.483 21.000 H 762.583 C 762.528 21.000 762.483 21.045 762.483 21.100 V 29.100 C 762.483 29.155 762.528 29.200 762.583 29.200 H 766.483 C 766.583 29.200 766.483 29.100 766.483 29.200 V 37.000 C 766.483 37.100 766.583 37.000 766.483 37.000 H 762.583 C 762.528 37.000 762.483 37.045 762.483 37.100 V 45.100 C 762.483 45.155 762.528 45.200 762.583 45.200 H 766.483 C 766.583 45.200 766.483 45.100 766.483 45.200 V 53.000 C 766.483 53.100 766.583 53.000 766.483 53.000 H 762.583 C 762.528 53.000 762.483 53.045 762.483 53.100 V 61.100 C 762.483 61.155 762.528 61.200 762.583 61.200 H 766.483 C 766.583 61.200 766.483 61.100 766.483 61.200 V 69.000 C 766.483 69.100 766.583 69.000 766.483 69.000 H 762.583 C 762.528 69.000 762.483 69.045 762.483 69.100 V 77.100 C 762.483 77.155 762.528 77.200 762.583 77.200 H 766.483 C 766.583 77.200 766.483 77.100 766.483 77.200 V 85.000 C 766.483 85.100 766.583 85.000 766.483 85.000 H 762.583 C 762.528 85.000 762.483 85.045 762.483 85.100 V 93.100 C 762.483 93.155 762.528 93.200 762.583 93.200 H 766.483 C 766.583 93.200 766.483 93.100 766.483 93.200 V 101.000 C 766.483 101.100 766.583 101.000 766.483 101.000 H 762.583 C 762.528 101.000 762.483 101.045 762.483 101.100 V 109.100 C 762.483 109.155 762.528 109.200 762.583 109.200 H 766.483 C 766.583 109.200 766.483 109.100 766.483 109.200 V 117.000 C 766.483 117.100 766.583 117.000 766.483 117.000 H 762.583 C 762.528 117.000 762.483 117.045 762.483 117.100 V 125.100 C 762.483 125.155 762.528 125.200 762.583 125.200 H 766.483 C 766.583 125.200 766.483 125.100 766.483 125.200 V 133.000 C 766.483 133.100 766.583 133.000 766.483 133.000 H 762.583 C 762.528 133.000 762.483 133.045 762.483 133.100 V 141.100 C 762.483 141.155 762.528 141.200 762.583 141.200 H 766.483 C 766.583 141.200 766.483 141.100 766.483 141.200 V 149.000 C 766.483 149.100 766.583 149.000 766.483 149.000 H 762.583 C 762.528 149.000 762.483 149.045 762.483 149.100 V 157.100 C 762.483 157.155 762.528 157.200 762.583 157.200 H 766.483 C 766.583 157.200 766.483 157.100 766.483 157.200 V 164.100 V 168.100 C 766.483 168.155 766.528 168.200 766.583 168.200 Z"
       stroke="rgb(0,0,0)"
       stroke-width="0.20"
       id="path31" />
  </g>
</svg>
